# xmcd CD database file
#
# Track frame offsets:
#	150
#	15300
#	29175
#	48375
#	70800
#	85800
#	98475
#	114300
#	133875
#	155625
#
# Disc length: 2262 seconds
#
# Revision: 0
# Processed by: cddbd v1.5PL3 Copyright (c) Steve Scherf et al.
# Submitted via: CDex 1.40Release
#
DISCID=7d08d40a
DTITLE=Tribute Sounds - A Tribute To Martina McBride
DYEAR=2004
DGENRE=Country
TTITLE0=Independence Day
TTITLE1=Safe In The Arms Of Love
TTITLE2=This One's For The Girls
TTITLE3=Love's The Only House
TTITLE4=Wild Angels
TTITLE5=I Love You
TTITLE6=A Broken Wing
TTITLE7=Concrete Angel
TTITLE8=Where Would You Be
TTITLE9=In My Daughter's Eyes
EXTD=YEAR: 2004 ID3G: 2
EXTT0=
EXTT1=
EXTT2=
EXTT3=
EXTT4=
EXTT5=
EXTT6=
EXTT7=
EXTT8=
EXTT9=
PLAYORDER=
